<svg viewBox="0 0 24 24" xmlns="http://www.w3.org/2000/svg"><path d="m12.00039 6.86511a5.13489 5.13489 0 1 0 5.13489 5.13489 5.13479 5.13479 0 0 0 -5.13489-5.13489zm0 8.46846a3.3336 3.3336 0 1 1 3.33361-3.33357 3.33317 3.33317 0 0 1 -3.33361 3.33357z"/><path d="m21.93985 7.87719a7.33258 7.33258 0 0 0 -.46447-2.42726 4.918 4.918 0 0 0 -1.15346-1.77146 4.89358 4.89358 0 0 0 -1.77063-1.15347 7.32278 7.32278 0 0 0 -2.42729-.46446c-1.06625-.04854-1.4071-.06054-4.12278-.06054s-3.05681.01126-4.12365.06054a7.33317 7.33317 0 0 0 -2.42725.46446 4.90522 4.90522 0 0 0 -1.77146 1.15347 4.88551 4.88551 0 0 0 -1.1534 1.77146 7.33341 7.33341 0 0 0 -.46446 2.42726c-.04929 1.06622-.06061 1.40713-.06061 4.12281s.01132 3.05653.06059 4.12276a7.33352 7.33352 0 0 0 .46448 2.42731 4.888 4.888 0 0 0 1.1534 1.77146 4.9169 4.9169 0 0 0 1.77146 1.1534 7.33849 7.33849 0 0 0 2.42725.46448c1.06684.04849 1.40714.06059 4.12282.06059s3.05658-.01132 4.12281-.06059a7.33339 7.33339 0 0 0 2.42726-.46448 5.11251 5.11251 0 0 0 2.92492-2.92486 7.316 7.316 0 0 0 .46447-2.42731c.0485-1.067.05976-1.40708.05976-4.12276s-.01126-3.05659-.05976-4.12281zm-1.799 8.16406a5.54872 5.54872 0 0 1 -.344 1.85708 3.31133 3.31133 0 0 1 -1.89825 1.89741 5.52231 5.52231 0 0 1 -1.85708.344c-1.05408.04844-1.37068.05815-4.04119.05815s-2.98623-.00971-4.04-.05815a5.5263 5.5263 0 0 1 -1.85708-.344 3.10771 3.10771 0 0 1 -1.15024-.748 3.085 3.085 0 0 1 -.748-1.1494 5.52134 5.52134 0 0 1 -.344-1.85708c-.0485-1.05408-.05815-1.37068-.05815-4.04119s.01049-2.98623.05815-4.0412a5.56308 5.56308 0 0 1 .344-1.857 3.1074 3.1074 0 0 1 .748-1.15024 3.08175 3.08175 0 0 1 1.15024-.748 5.52271 5.52271 0 0 1 1.85708-.344c1.05407-.04849 1.37068-.05815 4.04-.05815s2.98623.01049 4.04119.05815a5.5635 5.5635 0 0 1 1.85708.344 3.30957 3.30957 0 0 1 1.89825 1.89825 5.52254 5.52254 0 0 1 .344 1.857c.04849 1.055.05815 1.37074.05815 4.0412s-.00964 2.9862-.05813 4.04117z"/><path d="m17.339 5.462h-.00044a1.19979 1.19979 0 1 0 .00044 0z"/></svg>